<svg width="32" height="32" viewBox="0 0 32 32" fill="none" xmlns="http://www.w3.org/2000/svg">
<path d="M13.2493 20.6666C13.1303 20.2052 12.8898 19.7841 12.5528 19.4471C12.2159 19.1101 11.7948 18.8696 11.3333 18.7506L3.15333 16.6413C3.01378 16.6016 2.89095 16.5176 2.80348 16.4019C2.71602 16.2861 2.6687 16.145 2.6687 15.9999C2.6687 15.8549 2.71602 15.7137 2.80348 15.598C2.89095 15.4823 3.01378 15.3982 3.15333 15.3586L11.3333 13.2479C11.7946 13.129 12.2156 12.8887 12.5525 12.552C12.8895 12.2153 13.1301 11.7944 13.2493 11.3333L15.3587 3.15326C15.3979 3.01315 15.4818 2.88971 15.5978 2.80178C15.7137 2.71386 15.8552 2.66626 16.0007 2.66626C16.1462 2.66626 16.2877 2.71386 16.4036 2.80178C16.5195 2.88971 16.6035 3.01315 16.6427 3.15326L18.7507 11.3333C18.8697 11.7947 19.1102 12.2158 19.4472 12.5527C19.7841 12.8897 20.2052 13.1302 20.6667 13.2493L28.8467 15.3573C28.9873 15.3961 29.1114 15.4799 29.1998 15.596C29.2882 15.7121 29.3361 15.854 29.3361 15.9999C29.3361 16.1458 29.2882 16.2877 29.1998 16.4038C29.1114 16.5199 28.9873 16.6038 28.8467 16.6426L20.6667 18.7506C20.2052 18.8696 19.7841 19.1101 19.4472 19.4471C19.1102 19.7841 18.8697 20.2052 18.7507 20.6666L16.6413 28.8466C16.6021 28.9867 16.5182 29.1101 16.4022 29.1981C16.2863 29.286 16.1448 29.3336 15.9993 29.3336C15.8538 29.3336 15.7123 29.286 15.5964 29.1981C15.4805 29.1101 15.3965 28.9867 15.3573 28.8466L13.2493 20.6666Z" stroke="white" stroke-width="2.66667" stroke-linecap="round" stroke-linejoin="round"/>
<path d="M26.6667 4V9.33333" stroke="white" stroke-width="2.66667" stroke-linecap="round" stroke-linejoin="round"/>
<path d="M29.3333 6.66675H24" stroke="white" stroke-width="2.66667" stroke-linecap="round" stroke-linejoin="round"/>
<path d="M5.33331 22.6667V25.3334" stroke="white" stroke-width="2.66667" stroke-linecap="round" stroke-linejoin="round"/>
<path d="M6.66667 24H4" stroke="white" stroke-width="2.66667" stroke-linecap="round" stroke-linejoin="round"/>
</svg>
