<svg width="20" height="20" viewBox="0 0 20 20" fill="none" xmlns="http://www.w3.org/2000/svg">
<g clip-path="url(#clip0_2_2741)">
<path d="M12.1134 18.0716C12.145 18.1505 12.2001 18.2179 12.2711 18.2646C12.3421 18.3113 12.4258 18.3352 12.5107 18.333C12.5957 18.3308 12.678 18.3027 12.7466 18.2524C12.8151 18.2021 12.8666 18.1321 12.8942 18.0516L18.3109 2.2183C18.3375 2.14446 18.3426 2.06455 18.3255 1.98793C18.3085 1.9113 18.2699 1.84113 18.2144 1.78561C18.1589 1.7301 18.0887 1.69154 18.0121 1.67446C17.9355 1.65737 17.8555 1.66246 17.7817 1.68913L1.94837 7.1058C1.86795 7.13338 1.7979 7.1849 1.7476 7.25344C1.69731 7.32199 1.66918 7.40428 1.66701 7.48926C1.66483 7.57425 1.6887 7.65787 1.73542 7.7289C1.78214 7.79993 1.84947 7.85497 1.92837 7.88663L8.53671 10.5366C8.74561 10.6203 8.93542 10.7453 9.09468 10.9043C9.25394 11.0633 9.37936 11.2529 9.46337 11.4616L12.1134 18.0716Z" stroke="white" stroke-width="1.66667" stroke-linecap="round" stroke-linejoin="round"/>
<path d="M18.2116 1.78906L9.09497 10.9049" stroke="white" stroke-width="1.66667" stroke-linecap="round" stroke-linejoin="round"/>
</g>
<defs>
<clipPath id="clip0_2_2741">
<rect width="20" height="20" fill="white"/>
</clipPath>
</defs>
</svg>
