<svg width="32" height="32" viewBox="0 0 32 32" fill="none" xmlns="http://www.w3.org/2000/svg">
<path d="M16.6666 29.3334H24C24.7072 29.3334 25.3855 29.0524 25.8856 28.5523C26.3857 28.0522 26.6666 27.3739 26.6666 26.6667V9.33335L20 2.66669H7.99998C7.29274 2.66669 6.61446 2.94764 6.11436 3.44774C5.61426 3.94783 5.33331 4.62611 5.33331 5.33335V18" stroke="white" stroke-width="2.66667" stroke-linecap="round" stroke-linejoin="round"/>
<path d="M18.6667 2.66669V8.00002C18.6667 8.70726 18.9476 9.38554 19.4477 9.88564C19.9478 10.3857 20.6261 10.6667 21.3334 10.6667H26.6667" stroke="white" stroke-width="2.66667" stroke-linecap="round" stroke-linejoin="round"/>
<path d="M17.8373 20.8347C18.1003 20.5717 18.3089 20.2595 18.4513 19.9159C18.5936 19.5722 18.6669 19.2039 18.6669 18.832C18.6669 18.4601 18.5936 18.0918 18.4513 17.7482C18.3089 17.4046 18.1003 17.0923 17.8373 16.8293C17.5743 16.5664 17.2621 16.3577 16.9185 16.2154C16.5749 16.0731 16.2066 15.9998 15.8347 15.9998C15.4627 15.9998 15.0944 16.0731 14.7508 16.2154C14.4072 16.3577 14.095 16.5664 13.832 16.8293L7.15199 23.512C6.83499 23.8288 6.60295 24.2205 6.47732 24.6507L5.36132 28.4773C5.32786 28.5921 5.32585 28.7137 5.35551 28.8295C5.38517 28.9452 5.44541 29.0509 5.52992 29.1354C5.61443 29.2199 5.7201 29.2802 5.83587 29.3098C5.95164 29.3395 6.07326 29.3375 6.18799 29.304L10.0147 28.188C10.4449 28.0624 10.8365 27.8304 11.1533 27.5133L17.8373 20.8347Z" stroke="white" stroke-width="2.66667" stroke-linecap="round" stroke-linejoin="round"/>
</svg>
