<svg width="32" height="32" viewBox="0 0 32 32" fill="none" xmlns="http://www.w3.org/2000/svg">
<path d="M5.33337 26V6.00002C5.33337 5.11597 5.68456 4.26812 6.30968 3.643C6.93481 3.01788 7.78265 2.66669 8.66671 2.66669H25.3334C25.687 2.66669 26.0261 2.80716 26.2762 3.05721C26.5262 3.30726 26.6667 3.6464 26.6667 4.00002V28C26.6667 28.3536 26.5262 28.6928 26.2762 28.9428C26.0261 29.1929 25.687 29.3334 25.3334 29.3334H8.66671C7.78265 29.3334 6.93481 28.9822 6.30968 28.357C5.68456 27.7319 5.33337 26.8841 5.33337 26ZM5.33337 26C5.33337 25.116 5.68456 24.2681 6.30968 23.643C6.93481 23.0179 7.78265 22.6667 8.66671 22.6667H26.6667" stroke="white" stroke-width="2.66667" stroke-linecap="round" stroke-linejoin="round"/>
</svg>
